<svg xmlns="http://www.w3.org/2000/svg" width="317.333" height="329.333" preserveAspectRatio="xMidYMid meet" version="1.0" viewBox="0 0 238 247"><metadata>Created by potrace 1.15, written by Peter Selinger 2001-2017</metadata><g fill="#000" stroke="none"><path d="M267 2253 l-67 -68 70 -70 70 -70 -70 -70 -70 -70 69 -69 70 -70 65 67 c36 37 69 67 73 67 5 0 70 -62 146 -138 l137 -137 -70 -70 -70 -70 -140 140 -140 140 -70 -70 -70 -70 140 -140 140 -140 -70 -70 -70 -70 70 -70 70 -70 -140 -140 -140 -140 70 -70 70 -69 -70 -71 -70 -71 70 -69 70 -69 70 69 70 69 70 -69 70 -69 70 69 70 70 210 -210 210 -210 210 210 210 210 70 -70 70 -69 70 69 70 69 70 -69 70 -69 70 69 70 69 -70 71 -70 71 70 69 70 70 -140 140 -140 140 70 70 70 70 -70 70 -70 70 140 140 140 140 -70 70 -70 70 -140 -140 -140 -140 -70 70 -70 70 140 140 140 140 70 -70 70 -69 70 69 70 69 -70 71 -70 71 70 69 70 70 -70 70 -70 70 -280 -280 -280 -280 -70 70 -70 69 -70 -69 -70 -69 -70 69 -70 69 -70 -69 -70 -70 -278 278 c-152 152 -280 277 -283 277 -4 0 -36 -30 -72 -67z m566 -981 l67 -68 -70 -69 -70 -69 -70 69 -70 69 67 68 c37 38 70 68 73 68 3 0 36 -30 73 -68z m840 0 l67 -68 -70 -69 -70 -69 -70 69 -70 69 67 68 c37 38 70 68 73 68 3 0 36 -30 73 -68z m-420 -140 l67 -68 -70 -69 -70 -70 140 -140 140 -140 -70 -70 -70 -69 -70 69 -70 69 -70 -69 -70 -69 -70 69 -70 70 135 135 c74 74 135 140 135 145 0 6 -29 40 -65 75 l-65 64 67 68 c37 38 70 68 73 68 3 0 36 -30 73 -68z" transform="translate(0.000000,247.000000) scale(0.100000,-0.100000)"/></g></svg>